<mxfile host="app.diagrams.net" agent="Mozilla/5.0 (Windows NT 10.0; Win64; x64) AppleWebKit/537.36 (KHTML, like Gecko) Chrome/136.0.0.0 Safari/537.36" version="27.0.6">
  <diagram name="Amazon Q Code Modernization Flow" id="EpU5S7EvS1nghmKLNppi">
    <mxGraphModel dx="969" dy="517" grid="1" gridSize="10" guides="1" tooltips="1" connect="1" arrows="1" fold="1" page="1" pageScale="1" pageWidth="4681" pageHeight="3300" math="0" shadow="0">
      <root>
        <mxCell id="0" />
        <mxCell id="1" parent="0" />
        <mxCell id="Wexn6ugo0EYt-scRTnBi-1" value="1. Push code to GitHub" style="rounded=1;whiteSpace=wrap;html=1;fillColor=#DAE8FC;" vertex="1" parent="1">
          <mxGeometry x="80" y="20" width="260" height="60" as="geometry" />
        </mxCell>
        <mxCell id="Wexn6ugo0EYt-scRTnBi-2" value="2. Create a new issue - add relevant title and well-structured description" style="rounded=1;whiteSpace=wrap;html=1;fillColor=#E1D5E7;" vertex="1" parent="1">
          <mxGeometry x="80" y="100" width="260" height="80" as="geometry" />
        </mxCell>
        <mxCell id="Wexn6ugo0EYt-scRTnBi-3" value="3. Assign &quot;Amazon Q transform agent&quot; to the issue" style="rounded=1;whiteSpace=wrap;html=1;fillColor=#FFF2CC;" vertex="1" parent="1">
          <mxGeometry x="80" y="200" width="260" height="60" as="geometry" />
        </mxCell>
        <mxCell id="Wexn6ugo0EYt-scRTnBi-4" value="4. Q creates new branch (from main)" style="rounded=1;whiteSpace=wrap;html=1;fillColor=#D5E8D4;" vertex="1" parent="1">
          <mxGeometry x="80" y="280" width="260" height="60" as="geometry" />
        </mxCell>
        <mxCell id="Wexn6ugo0EYt-scRTnBi-5" value="5. Q runs transformation workflow (build &amp; clone deps)" style="rounded=1;whiteSpace=wrap;html=1;fillColor=#F8CECC;" vertex="1" parent="1">
          <mxGeometry x="80" y="360" width="260" height="80" as="geometry" />
        </mxCell>
        <mxCell id="Wexn6ugo0EYt-scRTnBi-6" value="6. Q adds comments to issue to show progress" style="rounded=1;whiteSpace=wrap;html=1;fillColor=#D5E8D4;" vertex="1" parent="1">
          <mxGeometry x="80" y="460" width="260" height="60" as="geometry" />
        </mxCell>
        <mxCell id="Wexn6ugo0EYt-scRTnBi-7" value="7. Q pushes modernized code to new branch" style="rounded=1;whiteSpace=wrap;html=1;fillColor=#FFF2CC;" vertex="1" parent="1">
          <mxGeometry x="80" y="540" width="260" height="60" as="geometry" />
        </mxCell>
        <mxCell id="Wexn6ugo0EYt-scRTnBi-8" value="8. Q reruns transformation workflow" style="rounded=1;whiteSpace=wrap;html=1;fillColor=#F8CECC;" vertex="1" parent="1">
          <mxGeometry x="80" y="620" width="260" height="60" as="geometry" />
        </mxCell>
        <mxCell id="Wexn6ugo0EYt-scRTnBi-9" value="9. Q creates a new PR" style="rounded=1;whiteSpace=wrap;html=1;fillColor=#E1D5E7;" vertex="1" parent="1">
          <mxGeometry x="80" y="700" width="260" height="60" as="geometry" />
        </mxCell>
        <mxCell id="Wexn6ugo0EYt-scRTnBi-10" value="10. Q&#39;s PR agent runs security &amp; code-quality checks" style="rounded=1;whiteSpace=wrap;html=1;fillColor=#DAE8FC;" vertex="1" parent="1">
          <mxGeometry x="80" y="780" width="260" height="80" as="geometry" />
        </mxCell>
        <mxCell id="Wexn6ugo0EYt-scRTnBi-11" value="11. GitHub runs post-modernization workflow (build, test, lint, security)" style="rounded=1;whiteSpace=wrap;html=1;fillColor=#D5E8D4;" vertex="1" parent="1">
          <mxGeometry x="80" y="880" width="260" height="80" as="geometry" />
        </mxCell>
        <mxCell id="Wexn6ugo0EYt-scRTnBi-12" style="endArrow=block" edge="1" parent="1" source="Wexn6ugo0EYt-scRTnBi-1" target="Wexn6ugo0EYt-scRTnBi-2">
          <mxGeometry relative="1" as="geometry" />
        </mxCell>
        <mxCell id="Wexn6ugo0EYt-scRTnBi-13" style="endArrow=block" edge="1" parent="1" source="Wexn6ugo0EYt-scRTnBi-2" target="Wexn6ugo0EYt-scRTnBi-3">
          <mxGeometry relative="1" as="geometry" />
        </mxCell>
        <mxCell id="Wexn6ugo0EYt-scRTnBi-14" style="endArrow=block" edge="1" parent="1" source="Wexn6ugo0EYt-scRTnBi-3" target="Wexn6ugo0EYt-scRTnBi-4">
          <mxGeometry relative="1" as="geometry" />
        </mxCell>
        <mxCell id="Wexn6ugo0EYt-scRTnBi-15" style="endArrow=block" edge="1" parent="1" source="Wexn6ugo0EYt-scRTnBi-4" target="Wexn6ugo0EYt-scRTnBi-5">
          <mxGeometry relative="1" as="geometry" />
        </mxCell>
        <mxCell id="Wexn6ugo0EYt-scRTnBi-16" style="endArrow=block" edge="1" parent="1" source="Wexn6ugo0EYt-scRTnBi-5" target="Wexn6ugo0EYt-scRTnBi-6">
          <mxGeometry relative="1" as="geometry" />
        </mxCell>
        <mxCell id="Wexn6ugo0EYt-scRTnBi-17" style="endArrow=block" edge="1" parent="1" source="Wexn6ugo0EYt-scRTnBi-6" target="Wexn6ugo0EYt-scRTnBi-7">
          <mxGeometry relative="1" as="geometry" />
        </mxCell>
        <mxCell id="Wexn6ugo0EYt-scRTnBi-18" style="endArrow=block" edge="1" parent="1" source="Wexn6ugo0EYt-scRTnBi-7" target="Wexn6ugo0EYt-scRTnBi-8">
          <mxGeometry relative="1" as="geometry" />
        </mxCell>
        <mxCell id="Wexn6ugo0EYt-scRTnBi-19" style="endArrow=block" edge="1" parent="1" source="Wexn6ugo0EYt-scRTnBi-8" target="Wexn6ugo0EYt-scRTnBi-9">
          <mxGeometry relative="1" as="geometry" />
        </mxCell>
        <mxCell id="Wexn6ugo0EYt-scRTnBi-20" style="endArrow=block" edge="1" parent="1" source="Wexn6ugo0EYt-scRTnBi-9" target="Wexn6ugo0EYt-scRTnBi-10">
          <mxGeometry relative="1" as="geometry" />
        </mxCell>
        <mxCell id="Wexn6ugo0EYt-scRTnBi-21" style="endArrow=block" edge="1" parent="1" source="Wexn6ugo0EYt-scRTnBi-10" target="Wexn6ugo0EYt-scRTnBi-11">
          <mxGeometry relative="1" as="geometry" />
        </mxCell>
      </root>
    </mxGraphModel>
  </diagram>
</mxfile>
